<mxfile host="app.diagrams.net" modified="2023-01-11T10:41:26.423Z" agent="5.0 (Windows NT 10.0; Win64; x64) AppleWebKit/537.36 (KHTML, like Gecko) Chrome/108.0.0.0 Safari/537.36" version="20.8.3" etag="VW2o7mjavPD_1zzNVgNA" type="github">
  <diagram id="pZVEL6-MYWpkym2p0eeq" name="Page-1">
    <mxGraphModel dx="1434" dy="764" grid="1" gridSize="10" guides="1" tooltips="1" connect="1" arrows="1" fold="1" page="1" pageScale="1" pageWidth="850" pageHeight="1100" math="0" shadow="0">
      <root>
        <mxCell id="0" />
        <mxCell id="1" parent="0" />
        <mxCell id="_Q3TOPipKDcb-ZBd3toH-6" value="" style="rounded=1;arcSize=10;dashed=0;fillColor=none;gradientColor=none;strokeWidth=2;" vertex="1" parent="1">
          <mxGeometry x="190" y="190" width="250" height="560" as="geometry" />
        </mxCell>
        <mxCell id="_Q3TOPipKDcb-ZBd3toH-7" value="" style="dashed=0;html=1;shape=mxgraph.aws3.cloud;fillColor=#F58536;gradientColor=none;dashed=0;" vertex="1" parent="1">
          <mxGeometry x="201" y="170" width="52" height="36" as="geometry" />
        </mxCell>
        <mxCell id="_Q3TOPipKDcb-ZBd3toH-12" style="edgeStyle=orthogonalEdgeStyle;rounded=0;orthogonalLoop=1;jettySize=auto;html=1;" edge="1" parent="1" source="_Q3TOPipKDcb-ZBd3toH-8" target="_Q3TOPipKDcb-ZBd3toH-10">
          <mxGeometry relative="1" as="geometry" />
        </mxCell>
        <mxCell id="_Q3TOPipKDcb-ZBd3toH-14" style="edgeStyle=orthogonalEdgeStyle;rounded=0;orthogonalLoop=1;jettySize=auto;html=1;" edge="1" parent="1" source="_Q3TOPipKDcb-ZBd3toH-10" target="_Q3TOPipKDcb-ZBd3toH-13">
          <mxGeometry relative="1" as="geometry" />
        </mxCell>
        <mxCell id="_Q3TOPipKDcb-ZBd3toH-18" style="edgeStyle=orthogonalEdgeStyle;rounded=0;orthogonalLoop=1;jettySize=auto;html=1;" edge="1" parent="1" source="_Q3TOPipKDcb-ZBd3toH-13" target="_Q3TOPipKDcb-ZBd3toH-16">
          <mxGeometry relative="1" as="geometry" />
        </mxCell>
        <mxCell id="_Q3TOPipKDcb-ZBd3toH-19" value="" style="group" vertex="1" connectable="0" parent="1">
          <mxGeometry x="250" y="360" width="163" height="93" as="geometry" />
        </mxCell>
        <mxCell id="_Q3TOPipKDcb-ZBd3toH-10" value="" style="outlineConnect=0;dashed=0;verticalLabelPosition=bottom;verticalAlign=top;align=center;html=1;shape=mxgraph.aws3.api_gateway;fillColor=#D9A741;gradientColor=none;" vertex="1" parent="_Q3TOPipKDcb-ZBd3toH-19">
          <mxGeometry width="76.5" height="93" as="geometry" />
        </mxCell>
        <mxCell id="_Q3TOPipKDcb-ZBd3toH-11" value="API Gateway" style="text;html=1;align=center;verticalAlign=middle;resizable=0;points=[];autosize=1;strokeColor=none;fillColor=none;" vertex="1" parent="_Q3TOPipKDcb-ZBd3toH-19">
          <mxGeometry x="73" y="31.5" width="90" height="30" as="geometry" />
        </mxCell>
        <mxCell id="_Q3TOPipKDcb-ZBd3toH-20" value="" style="group" vertex="1" connectable="0" parent="1">
          <mxGeometry x="250" y="504" width="153" height="93" as="geometry" />
        </mxCell>
        <mxCell id="_Q3TOPipKDcb-ZBd3toH-13" value="" style="outlineConnect=0;dashed=0;verticalLabelPosition=bottom;verticalAlign=top;align=center;html=1;shape=mxgraph.aws3.lambda;fillColor=#F58534;gradientColor=none;" vertex="1" parent="_Q3TOPipKDcb-ZBd3toH-20">
          <mxGeometry width="76.5" height="93" as="geometry" />
        </mxCell>
        <mxCell id="_Q3TOPipKDcb-ZBd3toH-15" value="Lambda" style="text;html=1;align=center;verticalAlign=middle;resizable=0;points=[];autosize=1;strokeColor=none;fillColor=none;" vertex="1" parent="_Q3TOPipKDcb-ZBd3toH-20">
          <mxGeometry x="83" y="31.5" width="70" height="30" as="geometry" />
        </mxCell>
        <mxCell id="_Q3TOPipKDcb-ZBd3toH-21" value="" style="group" vertex="1" connectable="0" parent="1">
          <mxGeometry x="252.25" y="650" width="160.75" height="81" as="geometry" />
        </mxCell>
        <mxCell id="_Q3TOPipKDcb-ZBd3toH-16" value="" style="outlineConnect=0;dashed=0;verticalLabelPosition=bottom;verticalAlign=top;align=center;html=1;shape=mxgraph.aws3.dynamo_db;fillColor=#2E73B8;gradientColor=none;" vertex="1" parent="_Q3TOPipKDcb-ZBd3toH-21">
          <mxGeometry width="72" height="81" as="geometry" />
        </mxCell>
        <mxCell id="_Q3TOPipKDcb-ZBd3toH-17" value="DynamoDB" style="text;html=1;align=center;verticalAlign=middle;resizable=0;points=[];autosize=1;strokeColor=none;fillColor=none;" vertex="1" parent="_Q3TOPipKDcb-ZBd3toH-21">
          <mxGeometry x="80.75" y="25.5" width="80" height="30" as="geometry" />
        </mxCell>
        <mxCell id="_Q3TOPipKDcb-ZBd3toH-22" value="" style="group" vertex="1" connectable="0" parent="1">
          <mxGeometry x="253" y="220" width="150" height="85.5" as="geometry" />
        </mxCell>
        <mxCell id="_Q3TOPipKDcb-ZBd3toH-8" value="" style="outlineConnect=0;dashed=0;verticalLabelPosition=bottom;verticalAlign=top;align=center;html=1;shape=mxgraph.aws3.route_53;fillColor=#F58536;gradientColor=none;" vertex="1" parent="_Q3TOPipKDcb-ZBd3toH-22">
          <mxGeometry width="70.5" height="85.5" as="geometry" />
        </mxCell>
        <mxCell id="_Q3TOPipKDcb-ZBd3toH-9" value="Route 53" style="text;html=1;align=center;verticalAlign=middle;resizable=0;points=[];autosize=1;strokeColor=none;fillColor=none;" vertex="1" parent="_Q3TOPipKDcb-ZBd3toH-22">
          <mxGeometry x="80" y="27.75" width="70" height="30" as="geometry" />
        </mxCell>
      </root>
    </mxGraphModel>
  </diagram>
</mxfile>
